<?xml version="1.0" encoding="UTF-8" standalone="no"?>
<svg xmlns:rdf="http://www.w3.org/1999/02/22-rdf-syntax-ns#" xmlns="http://www.w3.org/2000/svg" height="340.7" width="340.9" version="1.0" xmlns:cc="http://creativecommons.org/ns#" xmlns:dc="http://purl.org/dc/elements/1.1/">
 <defs>
  <marker id="marker5838" refY="0" refX="0" overflow="visible" orient="auto">
   <path stroke-linejoin="round" d="m8.719 4.034-10.93-4.018 10.93-4.018c-1.745 2.372-1.735 5.617-6e-7 8.035z" fill-rule="evenodd" transform="scale(-.6)" stroke="#000" stroke-width=".625"/>
  </marker>
  <marker id="marker5834" refY="0" refX="0" overflow="visible" orient="auto">
   <path stroke-linejoin="round" d="m8.719 4.034-10.93-4.018 10.93-4.018c-1.745 2.372-1.735 5.617-6e-7 8.035z" fill-rule="evenodd" transform="scale(.6)" stroke="#000" stroke-width=".625"/>
  </marker>
  <marker id="Arrow2Mstart" refY="0" refX="0" overflow="visible" orient="auto">
   <path stroke-linejoin="round" d="m8.719 4.034-10.93-4.018 10.93-4.018c-1.745 2.372-1.735 5.617-6e-7 8.035z" fill-rule="evenodd" transform="scale(.6)" stroke-width=".625"/>
  </marker>
 </defs>
 <g transform="translate(363 15.6)">
  <circle cx="-194.7" stroke-linecap="round" stroke="#808080" cy="154.8" r="103" stroke-width="4" fill="#ccc"/>
  <path d="m-194.5 9.039v296" marker-start="url(#Arrow2Mstart)" stroke="#000" stroke-width="3" fill="none"/>
  <path d="m-46.96 154.7h-296" marker-start="url(#Arrow2Mstart)" stroke="#000" stroke-width="3" fill="none"/>
  <g fill-rule="evenodd">
   <path d="m-57.07 171.8c0.1758-0.778 0.8633-3.528 2.957-3.528 0.1484 0 0.8672 0 1.496 0.391-0.8398 0.148-1.438 0.894-1.438 1.613 0 0.481 0.3281 1.047 1.137 1.047 0.6563 0 1.613-0.539 1.613-1.734 0-1.555-1.762-1.973-2.777-1.973-1.734 0-2.781 1.586-3.141 2.273-0.7461-1.972-2.359-2.273-3.227-2.273-3.109 0-4.812 3.855-4.812 4.602 0 0.3 0.3008 0.3 0.3594 0.3 0.2383 0 0.3281-0.058 0.3867-0.328 1.02-3.168 2.988-3.918 4.008-3.918 0.5664 0 1.613 0.27 1.613 2.004 0 0.926-0.5078 2.93-1.613 7.113-0.4805 1.852-1.527 3.11-2.84 3.11-0.1797 0-0.8672 0-1.496-0.391 0.7461-0.148 1.406-0.777 1.406-1.613 0-0.805-0.6602-1.047-1.105-1.047-0.8984 0-1.645 0.777-1.645 1.734 0 1.375 1.492 1.973 2.809 1.973 1.973 0 3.051-2.09 3.141-2.269 0.3555 1.105 1.434 2.269 3.227 2.269 3.078 0 4.781-3.855 4.781-4.601 0-0.301-0.2695-0.301-0.3594-0.301-0.2695 0-0.3281 0.121-0.3867 0.332-0.9883 3.195-3.02 3.914-3.976 3.914-1.164 0-1.645-0.957-1.645-1.973 0-0.656 0.1797-1.316 0.5078-2.629l1.02-4.097z"/>
   <path d="m-207.6 14.53c0.118-0.418 0.118-0.48 0.118-0.687 0-0.539-0.418-0.809-0.868-0.809-0.297 0-0.777 0.18-1.047 0.629-0.058 0.149-0.296 1.074-0.418 1.613-0.207 0.778-0.417 1.586-0.597 2.391l-1.344 5.379c-0.121 0.449-1.406 2.543-3.379 2.543-1.523 0-1.851-1.317-1.851-2.422 0-1.375 0.507-3.227 1.523-5.859 0.481-1.223 0.598-1.551 0.598-2.149 0-1.347-0.957-2.453-2.45-2.453-2.839 0-3.945 4.336-3.945 4.602 0 0.3 0.297 0.3 0.36 0.3 0.296 0 0.328-0.058 0.476-0.539 0.809-2.808 2.004-3.707 3.02-3.707 0.238 0 0.746 0 0.746 0.957 0 0.75-0.297 1.528-0.508 2.094-1.195 3.168-1.734 4.871-1.734 6.277 0 2.661 1.882 3.555 3.648 3.555 1.164 0 2.18-0.508 3.02-1.344-0.391 1.555-0.75 3.02-1.946 4.602-0.777 1.016-1.91 1.883-3.285 1.883-0.422 0-1.766-0.09-2.273-1.254 0.48 0 0.867 0 1.285-0.36 0.301-0.269 0.597-0.656 0.597-1.226 0-0.926-0.804-1.043-1.105-1.043-0.688 0-1.672 0.476-1.672 1.941 0 1.492 1.313 2.602 3.168 2.602 3.078 0 6.156-2.723 6.992-6.098l2.871-11.42z"/>
   <path d="m-169.6 109.4c-0.09 0.446-0.27 1.133-0.27 1.285 0 0.536 0.422 0.805 0.868 0.805 0.359 0 0.898-0.238 1.105-0.836 0.063-0.121 1.078-4.183 1.195-4.722 0.243-0.985 0.778-3.079 0.957-3.887 0.121-0.387 0.957-1.793 1.676-2.449 0.238-0.211 1.106-0.989 2.391-0.989 0.777 0 1.226 0.36 1.254 0.36-0.895 0.152-1.555 0.867-1.555 1.644 0 0.481 0.332 1.047 1.137 1.047 0.808 0 1.644-0.687 1.644-1.766 0-1.042-0.957-1.941-2.48-1.941-1.942 0-3.258 1.465-3.824 2.301-0.243-1.344-1.317-2.301-2.723-2.301-1.375 0-1.942 1.168-2.211 1.703-0.539 1.016-0.926 2.809-0.926 2.899 0 0.3 0.297 0.3 0.36 0.3 0.296 0 0.328-0.031 0.507-0.687 0.508-2.121 1.106-3.559 2.18-3.559 0.508 0 0.93 0.243 0.93 1.375 0 0.629-0.09 0.957-0.481 2.512l-1.734 6.906z"/>
  </g>
  <path marker-end="url(#marker5838)" d="m-123.5 83.68-68.8 68.82" marker-start="url(#marker5834)" stroke="#000" stroke-width="2" fill="none"/>
 </g>
</svg>
