<?xml version="1.0" encoding="UTF-8"?>
<svg width="700" height="380" version="1.1" xmlns="http://www.w3.org/2000/svg">
	<g transform="translate(48.996 107.08)" stroke="#000" stroke-linecap="round" stroke-linejoin="round" stroke-width="3">
		<path d="m412.89 188.95a159.56 48.313 0 0 0-159.56-48.313 159.56 48.313 0 0 0-159.56 48.313 159.56 48.313 0 0 0 159.56 48.313 159.56 48.313 0 0 0 159.56-48.313zm88.413-7e-5a247.97 75.084 0 0 1-247.97 75.084 247.97 75.084 0 0 1-247.97-75.084 247.97 75.084 0 0 1 247.97-75.084 247.97 75.084 0 0 1 247.97 75.084z" fill="#dbdbdb"/>
		<path d="m262.1 188.95 141.67-3e-4" fill="none"/>
		<path d="m289.79 184.38-36.46 4.5752 36.46 4.5737z"/>
		<path d="m376.42 193.52 36.474-4.5737-36.474-4.5752z"/>
		<path d="m166.23 130.42-30.61-7.5492 4.017 11.892z"/>
		<path d="m253.34 188.95-112.49-63.149" fill="none"/>
		<path d="m222.73 181.41 30.607 7.5446-4.0142-11.888z"/>
		<path d="m558.45 193.52 36.474-4.5737-36.474-4.5752z"/>
		<path d="m42.298 257.41-36.692 4.4111 15.647-10.976z"/>
		<path d="m253.51 187.5-0.17678-232.11" fill="none" stroke-width="3"/>
		<path d="m262.17-43.088-8.8341-21.342-8.8428 21.342z"/>
	</g>
	<path d="m690.36 284.68c0.23572-0.83511 0.23572-0.95897 0.23572-1.3725 0-1.0768-0.83511-1.6163-1.7341-1.6163-0.59331 0-1.5524 0.35963-2.0917 1.2567-0.11591 0.29568-0.59139 2.1457-0.83511 3.2225-0.41359 1.5543-0.83309 3.1686-1.1927 4.7769l-2.6852 10.746c-0.24171 0.89703-2.8089 5.0805-6.7507 5.0805-3.0428 0-3.698-2.6312-3.698-4.8388 0-2.747 1.0129-6.4471 3.0428-11.705 0.96099-2.4434 1.1947-3.0987 1.1947-4.2934 0-2.6931-1.9119-4.9008-4.8948-4.9008-5.6719 0-7.8815 8.6627-7.8815 9.1941 0 0.59935 0.5934 0.59935 0.71928 0.59935 0.59138 0 0.65529-0.11587 0.95094-1.0768 1.6163-5.61 4.0038-7.4061 6.0335-7.4061 0.47547 0 1.4904 0 1.4904 1.912 0 1.4984-0.59333 3.0527-1.0149 4.1835-2.3874 6.3292-3.4642 9.7316-3.4642 12.541 0 5.3163 3.7599 7.1024 7.2881 7.1024 2.3255 0 4.3554-1.0149 6.0335-2.6851-0.78116 3.1067-1.4984 6.0335-3.8878 9.1941-1.5523 2.0298-3.8159 3.762-6.563 3.762-0.84313 0-3.5282-0.17981-4.5411-2.5053 0.95896 0 1.7321 0 2.5672-0.71922 0.60135-0.53743 1.1927-1.3106 1.1927-2.4494 0-1.85-1.6063-2.0838-2.2077-2.0838-1.3745 0-3.3404 0.95098-3.3404 3.8778 0 2.9808 2.6232 5.1984 6.3292 5.1984 6.1494 0 12.299-5.4402 13.969-12.183z"/>
	<path d="m27.615 350.38c0.3513-1.5543 1.7248-7.0484 5.9077-7.0484 0.29646 0 1.7325 0 2.989 0.78116-1.6778 0.29568-2.8719 1.7861-2.8719 3.2225 0 0.96098 0.65554 2.0918 2.271 2.0918 1.3112 0 3.2231-1.0768 3.2231-3.4643 0-3.1067-3.5196-3.9418-5.5486-3.9418-3.4651 0-5.5566 3.1686-6.2746 4.5411-1.4906-3.9398-4.7137-4.5411-6.4462-4.5411-6.212 0-9.6147 7.7017-9.6147 9.1941 0 0.59936 0.60094 0.59936 0.71799 0.59936 0.47603 0 0.65553-0.11588 0.77258-0.65529 2.0369-6.3292 5.9702-7.8276 8.0071-7.8276 1.1316 0 3.2231 0.53941 3.2231 4.0037 0 1.85-1.0145 5.8537-3.2231 14.211-0.95993 3.7-3.0514 6.2133-5.6736 6.2133-0.35899 0-1.7325 0-2.989-0.78116 1.4906-0.29568 2.8095-1.5523 2.8095-3.2225 0-1.6083-1.3188-2.0918-2.2086-2.0918-1.795 0-3.2855 1.5523-3.2855 3.4643 0 2.7471 2.9812 3.9418 5.6112 3.9418 3.9411 0 6.095-4.1755 6.2745-4.5331 0.71012 2.2076 2.8641 4.5331 6.4462 4.5331 6.1496 0 9.5522-7.7017 9.5522-9.1921 0-0.60136-0.53841-0.60136-0.71807-0.60136-0.5384 0-0.65545 0.24175-0.77258 0.6633-1.9744 6.3831-6.0325 7.8196-7.9444 7.8196-2.3258 0-3.2857-1.9119-3.2857-3.9418 0-1.3106 0.35907-2.6292 1.0146-5.2524z"/>
	<path d="m295.31 28.83c3.2226-3.4663 4.9547-4.9567 7.1004-6.8067 0-0.062 3.708-3.2226 5.8537-5.3762 5.674-5.548 6.9846-8.421 6.9846-8.6547 0-0.60134-0.53744-0.60134-0.65529-0.60134-0.42161 0-0.60135 0.11789-0.89708 0.6553-1.7881 2.8729-3.0447 3.8239-4.4791 3.8239-1.4285 0-2.1477-0.89704-3.0448-1.912-1.1308-1.3725-2.1457-2.5672-4.1196-2.5672-4.4812 0-7.2282 5.5561-7.2282 6.8047 0 0.30567 0.17982 0.66325 0.7192 0.66325 0.53743 0 0.65529-0.30366 0.77914-0.66325 1.1328-2.747 4.5971-2.801 5.0726-2.801 1.2566 0 2.3894 0.41355 3.7619 0.89703 2.3895 0.89105 3.0448 0.89105 4.5971 0.89105-2.1457 2.5673-7.1643 6.8666-8.295 7.8256-2.9888 2.6851-3.0527 2.747-5.3782 5.0107-4.0576 4.0037-6.1494 7.406-6.1494 7.8276 0 0.59337 0.60143 0.59337 0.71929 0.59337 0.47546 0 0.59138-0.11588 0.95094-0.77317 1.3746-2.0898 3.1686-3.706 5.0806-3.706 1.3746 0 1.9659 0.53742 3.4583 2.2716 1.0129 1.2566 2.0897 2.2076 3.8239 2.2076 5.9156 0 9.3719-7.5859 9.3719-9.1921 0-0.29768-0.23376-0.60138-0.70931-0.60138-0.53938 0-0.66526 0.35762-0.84305 0.77917-1.3746 3.8799-5.1904 5.0186-7.1643 5.0186-1.1948 0-2.2716-0.35961-3.5203-0.77917-2.0298-0.77317-2.9268-1.0149-4.1835-1.0149-0.11591 0-1.0769 0-1.6063 0.1798z"/>
	<path d="m374.21 283.97c-0.17982 0.89103-0.53946 2.2636-0.53946 2.5672 0 1.0708 0.84313 1.6083 1.7341 1.6083 0.71725 0 1.7941-0.4755 2.2076-1.6702 0.12588-0.24175 2.1537-8.357 2.3875-9.4359 0.48543-1.9659 1.5543-6.1494 1.9119-7.7637 0.2417-0.77317 1.9119-3.5822 3.3484-4.8928 0.47547-0.42155 2.2097-1.9759 4.7769-1.9759 1.5524 0 2.4494 0.71922 2.5053 0.71922-1.7881 0.30368-3.1067 1.7321-3.1067 3.2845 0 0.96098 0.66332 2.0918 2.2716 2.0918 1.6142 0 3.2845-1.3725 3.2845-3.5282 0-2.0838-1.9119-3.8778-4.9547-3.8778-3.8798 0-6.509 2.9268-7.6398 4.5971-0.48543-2.6851-2.6311-4.5971-5.4401-4.5971-2.747 0-3.8798 2.3335-4.4172 3.4024-1.0768 2.0298-1.85 5.612-1.85 5.7918 0 0.59935 0.5934 0.59935 0.71929 0.59935 0.59129 0 0.65528-0.0619 1.0129-1.3725 1.0148-4.2374 2.2096-7.1104 4.3553-7.1104 1.0149 0 1.8581 0.48348 1.8581 2.7471 0 1.2566-0.17982 1.9119-0.96098 5.0186z"/>
	<path d="m380.93 293.3 0.23219-1.1705h2.7087l2.2734-11.686-3.3568 1.78 0.28054-1.4414 4.0534-2.1863h3.0473l-2.6313 13.534h2.7184l-0.23218 1.1705z"/>
	<path d="m221.71 286.72c-0.17982 0.89103-0.53946 2.2636-0.53946 2.5672 0 1.0708 0.84313 1.6083 1.7341 1.6083 0.71725 0 1.7941-0.4755 2.2076-1.6702 0.12588-0.24175 2.1537-8.357 2.3875-9.4359 0.48543-1.9659 1.5543-6.1494 1.9119-7.7637 0.2417-0.77317 1.9119-3.5822 3.3484-4.8928 0.47547-0.42155 2.2097-1.9759 4.7769-1.9759 1.5524 0 2.4494 0.71922 2.5053 0.71922-1.7881 0.30368-3.1067 1.7321-3.1067 3.2845 0 0.96098 0.66331 2.0918 2.2716 2.0918 1.6142 0 3.2845-1.3725 3.2845-3.5282 0-2.0838-1.9119-3.8778-4.9547-3.8778-3.8798 0-6.509 2.9268-7.6398 4.5971-0.48543-2.6851-2.6311-4.5971-5.4401-4.5971-2.747 0-3.8798 2.3335-4.4172 3.4024-1.0768 2.0298-1.85 5.612-1.85 5.7918 0 0.59935 0.5934 0.59935 0.71928 0.59935 0.59129 0 0.65529-0.0619 1.0129-1.3725 1.0148-4.2374 2.2096-7.1104 4.3553-7.1104 1.0149 0 1.8581 0.48348 1.8581 2.7471 0 1.2566-0.17982 1.9119-0.96098 5.0186z"/>
	<path d="m230.45 285.17h-1.1609l0.59979-3.115q1.2576-0.35793 2.4475-0.53206 1.1899-0.18381 2.3701-0.18381 2.7571 0 4.0727 1.1318 1.3253 1.1222 0.93837 3.1344-0.28054 1.4317-1.3543 2.5733-1.0641 1.1318-3.7728 2.6894l-4.5371 2.641h6.8395l0.32891-1.7026h1.3253l-0.82228 4.2372h-10.68l0.46435-2.3604 2.4185-1.4801q3.1053-1.8864 4.2759-3.2117 1.1705-1.3253 1.5091-3.0957 0.32891-1.6736-0.19348-2.5442-0.52239-0.88033-1.8477-0.88033-1.1415 0-1.9638 0.69653-0.82228 0.68684-1.2576 2.0025z"/>
	<g transform="translate(48.996 107.08)" fill="none" stroke="#000" stroke-linecap="round" stroke-linejoin="round" stroke-width="3">
		<path d="m22.281 256.82c17.77-5.2199 35.54-10.44 53.309-15.659"/>
		<path d="m138.81 222.59c38.177-11.214 76.354-22.428 114.53-33.642"/>
		<path d="m501.3 188.95c22.572-7e-5 45.143-1.5e-4 67.712-2.2e-4"/>
		<path d="m412.89 188.95c29.472 3e-5 58.943 5e-5 88.413 8e-5" stroke-dasharray="6, 6"/>
		<path d="m75.59 241.16c21.074-6.1903 42.147-12.38 63.22-18.57" stroke-dasharray="6, 6"/>
	</g>
</svg>
