<?xml version="1.0" encoding="utf-8"?>
<!-- Generator: Adobe Illustrator 22.0.0, SVG Export Plug-In . SVG Version: 6.00 Build 0)  -->
<svg version="1.1" xmlns="http://www.w3.org/2000/svg" xmlns:xlink="http://www.w3.org/1999/xlink" x="0px" y="0px"
	 viewBox="0 0 230 230" style="enable-background:new 0 0 230 230;" xml:space="preserve">
<style type="text/css">
	.st0{fill:#B3B3B3;stroke:#4D4D4D;stroke-width:3;stroke-miterlimit:10;}
	.st1{fill:none;}
	.st2{fill:none;stroke:#000000;stroke-miterlimit:10;stroke-dasharray:2,2;}
	.st3{fill:none;stroke:#000000;stroke-miterlimit:10;}
	.st4{font-family:'CambriaMath';}
	.st5{font-size:18px;}
	.st6{fill:none;stroke:#000000;stroke-width:3;stroke-miterlimit:10;}
</style>
<g id="Layer_1">
	<polygon class="st0" points="25,200 90,50 200,200 	"/>
	<g>
		<path class="st1" d="M215,155"/>
	</g>
	<g>
		<path class="st1" d="M10,155"/>
	</g>
	<line class="st2" x1="90" y1="50" x2="90" y2="30"/>
	<line class="st2" x1="25" y1="215" x2="25" y2="30"/>
	<line class="st2" x1="200" y1="215" x2="200" y2="200"/>
	<line class="st2" x1="90" y1="50" x2="10" y2="50"/>
	<line class="st2" x1="25" y1="200" x2="10" y2="200"/>
	<g>
		<g>
			<line class="st3" x1="33.7" y1="40" x2="82.3" y2="40"/>
			<g>
				<path d="M35.4,40l2.2-3.6l-0.1-0.1l-5.9,2.3c-2,0.5-4.1,0.9-6.1,1.4c2,0.5,4.1,0.9,6.1,1.4l5.9,2.3l0.1-0.1L35.4,40z"/>
			</g>
			<g>
				<path d="M80.6,40l-2.2-3.6l0.1-0.1l5.9,2.3c2,0.5,4.1,0.9,6.1,1.4c-2,0.5-4.1,0.9-6.1,1.4l-5.9,2.3l-0.1-0.1L80.6,40z"/>
			</g>
		</g>
	</g>
	<g>
		<g>
			<line class="st3" x1="17.5" y1="191.8" x2="17.5" y2="58.2"/>
			<g>
				<path d="M17.5,190.1l-3.6-2.2l-0.1,0.1l2.3,5.9c0.5,2,0.9,4.1,1.4,6.1c0.5-2,0.9-4.1,1.4-6.1l2.3-5.9l-0.1-0.1L17.5,190.1z"/>
			</g>
			<g>
				<path d="M17.5,59.9l-3.6,2.2L13.8,62l2.3-5.9c0.5-2,0.9-4.1,1.4-6.1c0.5,2,0.9,4.1,1.4,6.1l2.3,5.9l-0.1,0.1L17.5,59.9z"/>
			</g>
		</g>
	</g>
	<text transform="matrix(1 0 0 1 5 124.9999)" class="st4 st5">h</text>
	<text transform="matrix(1 0 0 1 53.3331 32.9999)" class="st4 st5">a</text>
	<text transform="matrix(1 0 0 1 112.5 226.0162)" class="st4 st5">b</text>
	<g>
		<g>
			<line class="st3" x1="33.2" y1="210" x2="191.8" y2="210"/>
			<g>
				<path d="M34.9,210l2.2-3.6l-0.1-0.1l-5.9,2.3c-2,0.5-4.1,0.9-6.1,1.4c2,0.5,4.1,0.9,6.1,1.4l5.9,2.3l0.1-0.1L34.9,210z"/>
			</g>
			<g>
				<path d="M190.1,210l-2.2-3.6l0.1-0.1l5.9,2.3c2,0.5,4.1,0.9,6.1,1.4c-2,0.5-4.1,0.9-6.1,1.4l-5.9,2.3l-0.1-0.1L190.1,210z"/>
			</g>
		</g>
	</g>
</g>
<g id="Layer_2">
	<g>
		<g>
			<line class="st6" x1="5" y1="200" x2="210.3" y2="200"/>
			<g>
				<path d="M207.1,200l-3.9-6.5l0.2-0.1l10.6,4.2c3.7,0.8,7.4,1.6,11.1,2.4c-3.7,0.8-7.4,1.6-11.1,2.4l-10.6,4.2l-0.2-0.1
					L207.1,200z"/>
			</g>
		</g>
	</g>
	<text transform="matrix(1 0 0 1 215 190.5003)" class="st4 st5">x</text>
</g>
<g id="Layer_3">
	<g>
		<g>
			<line class="st6" x1="25" y1="225" x2="25" y2="19.7"/>
			<g>
				<path d="M25,22.9l-6.5,3.9l-0.1-0.2l4.2-10.6C23.4,12.4,24.2,8.7,25,5c0.8,3.7,1.6,7.4,2.4,11.1l4.2,10.6l-0.1,0.2L25,22.9z"/>
			</g>
		</g>
	</g>
	<text transform="matrix(1 0 0 1 8 16.1889)" class="st4 st5">y</text>
</g>
</svg>
